{
  "accessors": [
    {
      "bufferView": 2,
      "componentType": 5126,
      "count": 44188,
      "max": [
        27.59800148010254,
        16.569255828857422,
        21.03531265258789
      ],
      "min": [
        -22.471946716308594,
        -16.621156692504883,
        -0.9585639834403992
      ],
      "type": "VEC3"
    },
    {
      "bufferView": 2,
      "byteOffset": 530256,
      "componentType": 5126,
      "count": 44188,
      "max": [
        0.9999974966049194,
        0.9999996423721313,
        0.9999990463256836
      ],
      "min": [
        -0.9999971389770508,
        -0.999995231628418,
        -0.9999771118164063
      ],
      "type": "VEC3"
    },
    {
      "bufferView": 3,
      "componentType": 5126,
      "count": 44188,
      "max": [
        0.9999999403953552,
        0.9998472332954407,
        0.9999977946281433,
        1.0
      ],
      "min": [
        -1.0,
        -0.9999682307243347,
        -0.9999850392341614,
        -1.0
      ],
      "type": "VEC4"
    },
    {
      "bufferView": 1,
      "componentType": 5126,
      "count": 44188,
      "max": [
        0.9995869994163513,
        0.9999189972877502
      ],
      "min": [
        8.099999831756577e-05,
        0.0003129999968223274
      ],
      "type": "VEC2"
    },
    {
      "bufferView": 0,
      "componentType": 5125,
      "count": 149853,
      "type": "SCALAR"
    }
  ],
  "asset": {
    "extras": {
      "author": "Dystopia (https://sketchfab.com/Dystopia)",
      "license": "CC-BY-NC-4.0 (http://creativecommons.org/licenses/by-nc/4.0/)",
      "source": "https://sketchfab.com/3d-models/100th-model-goshingyu-japan-heritage-02bd4de0a76b4f788863b2ef719f0bbd",
      "title": "100th model : Goshingyu - Japan Heritage"
    },
    "generator": "Sketchfab-12.67.0",
    "version": "2.0"
  },
  "bufferViews": [
    {
      "buffer": 0,
      "byteLength": 599412,
      "name": "floatBufferViews",
      "target": 34963
    },
    {
      "buffer": 0,
      "byteLength": 353504,
      "byteOffset": 599412,
      "byteStride": 8,
      "name": "floatBufferViews",
      "target": 34962
    },
    {
      "buffer": 0,
      "byteLength": 1060512,
      "byteOffset": 952916,
      "byteStride": 12,
      "name": "floatBufferViews",
      "target": 34962
    },
    {
      "buffer": 0,
      "byteLength": 707008,
      "byteOffset": 2013428,
      "byteStride": 16,
      "name": "floatBufferViews",
      "target": 34962
    }
  ],
  "buffers": [
    {
      "byteLength": 2720436,
      "uri": "scene.bin"
    }
  ],
  "images": [
    {
      "uri": "textures/Go-Shingyu_LOD.001_baseColor.jpeg"
    },
    {
      "uri": "textures/Go-Shingyu_LOD.001_metallicRoughness.png"
    },
    {
      "uri": "textures/Go-Shingyu_LOD.001_normal.jpeg"
    }
  ],
  "materials": [
    {
      "doubleSided": true,
      "name": "Go-Shingyu_LOD.001",
      "normalTexture": {
        "index": 2
      },
      "pbrMetallicRoughness": {
        "baseColorTexture": {
          "index": 0
        },
        "metallicFactor": 0.22371298245656182,
        "metallicRoughnessTexture": {
          "index": 1
        }
      }
    }
  ],
  "meshes": [
    {
      "name": "Object_0",
      "primitives": [
        {
          "attributes": {
            "NORMAL": 1,
            "POSITION": 0,
            "TANGENT": 2,
            "TEXCOORD_0": 3
          },
          "indices": 4,
          "material": 0,
          "mode": 4
        }
      ]
    }
  ],
  "nodes": [
    {
      "children": [
        1
      ],
      "matrix": [
        1.0,
        0.0,
        0.0,
        0.0,
        0.0,
        2.220446049250313e-16,
        -1.0,
        0.0,
        0.0,
        1.0,
        2.220446049250313e-16,
        0.0,
        0.0,
        0.0,
        0.0,
        1.0
      ],
      "name": "Sketchfab_model"
    },
    {
      "children": [
        2
      ],
      "name": "Go-Shingyu_LOD.obj.cleaner.materialmerger.gles"
    },
    {
      "mesh": 0,
      "name": "Object_2"
    }
  ],
  "samplers": [
    {
      "magFilter": 9729,
      "minFilter": 9987,
      "wrapS": 10497,
      "wrapT": 10497
    }
  ],
  "scene": 0,
  "scenes": [
    {
      "name": "Sketchfab_Scene",
      "nodes": [
        0
      ]
    }
  ],
  "textures": [
    {
      "sampler": 0,
      "source": 0
    },
    {
      "sampler": 0,
      "source": 1
    },
    {
      "sampler": 0,
      "source": 2
    }
  ]
}
